<svg xmlns="http://www.w3.org/2000/svg" width="80" height="80" viewBox="0 0 80 80" fill="none">
<mask id="mask0_1_49" style="mask-type:luminance" maskUnits="userSpaceOnUse" x="0" y="0" width="80" height="80">
<path d="M65.258 0H14.6162C6.5439 0 0 6.3113 0 14.0967V65.7877C0 73.5731 6.5439 79.8844 14.6162 79.8844H65.258C73.3303 79.8844 79.8742 73.5731 79.8742 65.7877V14.0967C79.8742 6.3113 73.3303 0 65.258 0Z" fill="white"/>
</mask>
<g mask="url(#mask0_1_49)">
<path d="M41.9303 99.9811C75.5679 99.9811 102.836 73.6817 102.836 41.2398C102.836 8.79795 75.5679 -17.5014 41.9303 -17.5014C8.29278 -17.5014 -18.9758 8.79795 -18.9758 41.2398C-18.9758 73.6817 8.29278 99.9811 41.9303 99.9811Z" fill="#7D2AE7"/>
<path d="M41.9303 99.9811C75.5679 99.9811 102.836 73.6817 102.836 41.2398C102.836 8.79795 75.5679 -17.5014 41.9303 -17.5014C8.29278 -17.5014 -18.9758 8.79795 -18.9758 41.2398C-18.9758 73.6817 8.29278 99.9811 41.9303 99.9811Z" fill="url(#paint0_radial_1_49)"/>
<path d="M41.9303 99.9811C75.5679 99.9811 102.836 73.6817 102.836 41.2398C102.836 8.79795 75.5679 -17.5014 41.9303 -17.5014C8.29278 -17.5014 -18.9758 8.79795 -18.9758 41.2398C-18.9758 73.6817 8.29278 99.9811 41.9303 99.9811Z" fill="url(#paint1_radial_1_49)"/>
<path d="M41.9303 99.9811C75.5679 99.9811 102.836 73.6817 102.836 41.2398C102.836 8.79795 75.5679 -17.5014 41.9303 -17.5014C8.29278 -17.5014 -18.9758 8.79795 -18.9758 41.2398C-18.9758 73.6817 8.29278 99.9811 41.9303 99.9811Z" fill="url(#paint2_radial_1_49)"/>
<path d="M35.3573 98.6844C68.9948 98.6844 96.2634 72.385 96.2634 39.9431C96.2634 7.50125 68.9948 -18.7981 35.3573 -18.7981C1.71978 -18.7981 -25.5488 7.50125 -25.5488 39.9431C-25.5488 72.385 1.71978 98.6844 35.3573 98.6844Z" fill="url(#paint3_radial_1_49)"/>
</g>
<path d="M72.1553 43.6512C72.0433 43.6512 71.943 43.7213 71.8899 43.8654C71.2197 45.7081 70.3155 46.8057 69.5705 46.8057C69.142 46.8057 68.969 46.345 68.969 45.6247C68.969 43.8199 70.0894 39.9905 70.6555 38.2446C70.7204 38.0341 70.7636 37.8446 70.7636 37.6834C70.7636 37.1754 70.4767 36.927 69.7632 36.927C68.9946 36.927 68.1691 37.2171 67.3651 38.5744C67.088 37.3763 66.2487 36.8531 65.0752 36.8531C63.7189 36.8531 62.4098 37.6948 61.3307 39.0597C60.2516 40.4247 58.9838 40.8721 58.0305 40.6503C58.7165 39.0313 58.972 37.8199 58.972 36.9232C58.972 35.5147 58.2506 34.6635 57.083 34.6635C55.3081 34.6635 54.286 36.2957 54.286 38.0133C54.286 39.3403 54.9091 40.7052 56.2831 41.3668C55.1332 43.8749 53.4526 46.1441 52.8157 46.1441C51.9921 46.1441 51.7504 42.2578 51.7956 39.4787C51.8251 37.8844 51.9627 37.8029 51.9627 37.3194C51.9627 37.0427 51.7759 36.8531 51.029 36.8531C49.2835 36.8531 48.745 38.2768 48.6644 39.9128C48.6388 40.5327 48.5366 41.1507 48.3636 41.7498C47.6344 44.2578 46.1327 46.1612 45.1518 46.1612C44.6978 46.1612 44.574 45.7232 44.574 45.1488C44.574 43.3441 45.6236 41.0863 45.6236 39.1621C45.6236 37.7479 44.9808 36.8531 43.7681 36.8531C42.341 36.8531 40.4521 38.491 38.6654 41.5602C39.2531 39.2095 39.4948 36.9346 37.7533 36.9346C37.374 36.9403 37.0044 37.0332 36.6722 37.2057C36.4442 37.31 36.3027 37.5375 36.3184 37.7801C36.4855 40.2825 34.227 46.692 32.0865 46.692C31.6973 46.692 31.5086 46.2863 31.5086 45.6303C31.5086 43.8218 32.6251 40.0019 33.1872 38.254C33.26 38.0266 33.2993 37.8313 33.2993 37.6607C33.2993 37.1811 32.9926 36.9365 32.2968 36.9365C31.5322 36.9365 30.7027 37.2171 29.9027 38.5744C29.6216 37.3763 28.7823 36.8531 27.6088 36.8531C25.6845 36.8531 23.5342 38.8171 22.5907 41.3744C21.3268 44.7905 18.7774 48.0891 15.3474 48.0891C12.2339 48.0891 10.5907 45.5905 10.5907 41.6417C10.5907 35.9412 14.9287 31.2834 18.1484 31.2834C19.6875 31.2834 20.4226 32.2294 20.4226 33.6777C20.4226 35.4332 19.4064 36.2484 19.4064 36.9175C19.4064 37.1223 19.5833 37.3232 19.9332 37.3232C21.3307 37.3232 22.9779 35.7384 22.9779 33.5773C22.9779 31.4161 21.1577 29.8332 17.9401 29.8332C12.6211 29.8332 7.2688 34.9953 7.2688 41.6095C7.2688 46.8721 9.96167 50.0455 14.6162 50.0455C17.7926 50.0455 20.5661 47.6626 22.0619 44.8834C22.231 47.1867 23.316 48.3905 24.969 48.3905C26.4393 48.3905 27.6285 47.5469 28.5366 46.0626C28.8865 47.6152 29.8143 48.3754 31.0192 48.3754C32.401 48.3754 33.5587 47.5318 34.6595 45.9621C34.6437 47.1943 34.9346 48.3545 36.0413 48.3545C36.5641 48.3545 37.1872 48.237 37.2993 47.7972C38.4649 43.145 41.3484 39.3479 42.229 39.3479C42.4904 39.3479 42.5631 39.5905 42.5631 39.8768C42.5631 41.1412 41.6393 43.7308 41.6393 45.3858C41.6393 47.1735 42.4275 48.3545 44.0531 48.3545C45.8575 48.3545 47.6894 46.2237 48.912 43.1109C49.2934 46.019 50.1209 48.3678 51.4143 48.3678C53.0025 48.3678 55.8211 45.1431 57.5312 41.7308C58.2015 41.8123 59.2079 41.7915 60.1749 41.1318C59.7641 42.1365 59.5224 43.236 59.5224 44.3375C59.5224 47.5052 61.0909 48.3924 62.4393 48.3924C63.9057 48.3924 65.0948 47.5488 66.0069 46.0645C66.3076 47.4029 67.0762 48.3735 68.4875 48.3735C70.6968 48.3735 72.6133 46.1953 72.6133 44.4095C72.6133 43.9375 72.4049 43.6493 72.1592 43.6493L72.1553 43.6512ZM26.3116 46.6389C25.4192 46.6389 25.0693 45.7725 25.0693 44.4796C25.0693 42.2351 26.6614 38.4891 28.344 38.4891C29.0791 38.4891 29.3563 39.3251 29.3563 40.345C29.3563 42.6237 27.8428 46.6389 26.3116 46.6389ZM56.8649 39.9431C56.3322 39.3327 56.1396 38.5005 56.1396 37.7593C56.1396 36.8455 56.4855 36.074 56.9003 36.074C57.315 36.074 57.4428 36.4683 57.4428 37.0161C57.4428 37.9337 57.1027 39.2721 56.8649 39.9431ZM63.7818 46.6389C62.8894 46.6389 62.5396 45.6436 62.5396 44.4796C62.5396 42.3147 64.1317 38.4891 65.826 38.4891C66.5612 38.4891 66.8226 39.3176 66.8226 40.345C66.8226 42.6237 65.3366 46.6389 63.7799 46.6389H63.7818Z" fill="white"/>
<path d="M72.1553 43.6512C72.0433 43.6512 71.943 43.7213 71.8899 43.8654C71.2197 45.7081 70.3155 46.8057 69.5705 46.8057C69.142 46.8057 68.969 46.345 68.969 45.6247C68.969 43.8199 70.0894 39.9905 70.6555 38.2446C70.7204 38.0341 70.7636 37.8446 70.7636 37.6834C70.7636 37.1754 70.4767 36.927 69.7632 36.927C68.9946 36.927 68.1691 37.2171 67.3651 38.5744C67.088 37.3763 66.2487 36.8531 65.0752 36.8531C63.7189 36.8531 62.4098 37.6948 61.3307 39.0597C60.2516 40.4247 58.9838 40.8721 58.0305 40.6503C58.7165 39.0313 58.972 37.8199 58.972 36.9232C58.972 35.5147 58.2506 34.6635 57.083 34.6635C55.3081 34.6635 54.286 36.2957 54.286 38.0133C54.286 39.3403 54.9091 40.7052 56.2831 41.3668C55.1332 43.8749 53.4526 46.1441 52.8157 46.1441C51.9921 46.1441 51.7504 42.2578 51.7956 39.4787C51.8251 37.8844 51.9627 37.8029 51.9627 37.3194C51.9627 37.0427 51.7759 36.8531 51.029 36.8531C49.2835 36.8531 48.745 38.2768 48.6644 39.9128C48.6388 40.5327 48.5366 41.1507 48.3636 41.7498C47.6344 44.2578 46.1327 46.1612 45.1518 46.1612C44.6978 46.1612 44.574 45.7232 44.574 45.1488C44.574 43.3441 45.6236 41.0863 45.6236 39.1621C45.6236 37.7479 44.9808 36.8531 43.7681 36.8531C42.341 36.8531 40.4521 38.491 38.6654 41.5602C39.2531 39.2095 39.4948 36.9346 37.7533 36.9346C37.374 36.9403 37.0044 37.0332 36.6722 37.2057C36.4442 37.31 36.3027 37.5375 36.3184 37.7801C36.4855 40.2825 34.227 46.692 32.0865 46.692C31.6973 46.692 31.5086 46.2863 31.5086 45.6303C31.5086 43.8218 32.6251 40.0019 33.1872 38.254C33.26 38.0266 33.2993 37.8313 33.2993 37.6607C33.2993 37.1811 32.9926 36.9365 32.2968 36.9365C31.5322 36.9365 30.7027 37.2171 29.9027 38.5744C29.6216 37.3763 28.7823 36.8531 27.6088 36.8531C25.6845 36.8531 23.5342 38.8171 22.5907 41.3744C21.3268 44.7905 18.7774 48.0891 15.3474 48.0891C12.2339 48.0891 10.5907 45.5905 10.5907 41.6417C10.5907 35.9412 14.9287 31.2834 18.1484 31.2834C19.6875 31.2834 20.4226 32.2294 20.4226 33.6777C20.4226 35.4332 19.4064 36.2484 19.4064 36.9175C19.4064 37.1223 19.5833 37.3232 19.9332 37.3232C21.3307 37.3232 22.9779 35.7384 22.9779 33.5773C22.9779 31.4161 21.1577 29.8332 17.9401 29.8332C12.6211 29.8332 7.2688 34.9953 7.2688 41.6095C7.2688 46.8721 9.96167 50.0455 14.6162 50.0455C17.7926 50.0455 20.5661 47.6626 22.0619 44.8834C22.231 47.1867 23.316 48.3905 24.969 48.3905C26.4393 48.3905 27.6285 47.5469 28.5366 46.0626C28.8865 47.6152 29.8143 48.3754 31.0192 48.3754C32.401 48.3754 33.5587 47.5318 34.6595 45.9621C34.6437 47.1943 34.9346 48.3545 36.0413 48.3545C36.5641 48.3545 37.1872 48.237 37.2993 47.7972C38.4649 43.145 41.3484 39.3479 42.229 39.3479C42.4904 39.3479 42.5631 39.5905 42.5631 39.8768C42.5631 41.1412 41.6393 43.7308 41.6393 45.3858C41.6393 47.1735 42.4275 48.3545 44.0531 48.3545C45.8575 48.3545 47.6894 46.2237 48.912 43.1109C49.2934 46.019 50.1209 48.3678 51.4143 48.3678C53.0025 48.3678 55.8211 45.1431 57.5312 41.7308C58.2015 41.8123 59.2079 41.7915 60.1749 41.1318C59.7641 42.1365 59.5224 43.236 59.5224 44.3375C59.5224 47.5052 61.0909 48.3924 62.4393 48.3924C63.9057 48.3924 65.0948 47.5488 66.0069 46.0645C66.3076 47.4029 67.0762 48.3735 68.4875 48.3735C70.6968 48.3735 72.6133 46.1953 72.6133 44.4095C72.6133 43.9375 72.4049 43.6493 72.1592 43.6493L72.1553 43.6512ZM26.3116 46.6389C25.4192 46.6389 25.0693 45.7725 25.0693 44.4796C25.0693 42.2351 26.6614 38.4891 28.344 38.4891C29.0791 38.4891 29.3563 39.3251 29.3563 40.345C29.3563 42.6237 27.8428 46.6389 26.3116 46.6389ZM56.8649 39.9431C56.3322 39.3327 56.1396 38.5005 56.1396 37.7593C56.1396 36.8455 56.4855 36.074 56.9003 36.074C57.315 36.074 57.4428 36.4683 57.4428 37.0161C57.4428 37.9337 57.1027 39.2721 56.8649 39.9431ZM63.7818 46.6389C62.8894 46.6389 62.5396 45.6436 62.5396 44.4796C62.5396 42.3147 64.1317 38.4891 65.826 38.4891C66.5612 38.4891 66.8226 39.3176 66.8226 40.345C66.8226 42.6237 65.3366 46.6389 63.7799 46.6389H63.7818Z" fill="white"/>
<path d="M72.1553 43.6512C72.0433 43.6512 71.943 43.7213 71.8899 43.8654C71.2197 45.7081 70.3155 46.8057 69.5705 46.8057C69.142 46.8057 68.969 46.345 68.969 45.6247C68.969 43.8199 70.0894 39.9905 70.6555 38.2446C70.7204 38.0341 70.7636 37.8446 70.7636 37.6834C70.7636 37.1754 70.4767 36.927 69.7632 36.927C68.9946 36.927 68.1691 37.2171 67.3651 38.5744C67.088 37.3763 66.2487 36.8531 65.0752 36.8531C63.7189 36.8531 62.4098 37.6948 61.3307 39.0597C60.2516 40.4247 58.9838 40.8721 58.0305 40.6503C58.7165 39.0313 58.972 37.8199 58.972 36.9232C58.972 35.5147 58.2506 34.6635 57.083 34.6635C55.3081 34.6635 54.286 36.2957 54.286 38.0133C54.286 39.3403 54.9091 40.7052 56.2831 41.3668C55.1332 43.8749 53.4526 46.1441 52.8157 46.1441C51.9921 46.1441 51.7504 42.2578 51.7956 39.4787C51.8251 37.8844 51.9627 37.8029 51.9627 37.3194C51.9627 37.0427 51.7759 36.8531 51.029 36.8531C49.2835 36.8531 48.745 38.2768 48.6644 39.9128C48.6388 40.5327 48.5366 41.1507 48.3636 41.7498C47.6344 44.2578 46.1327 46.1612 45.1518 46.1612C44.6978 46.1612 44.574 45.7232 44.574 45.1488C44.574 43.3441 45.6236 41.0863 45.6236 39.1621C45.6236 37.7479 44.9808 36.8531 43.7681 36.8531C42.341 36.8531 40.4521 38.491 38.6654 41.5602C39.2531 39.2095 39.4948 36.9346 37.7533 36.9346C37.374 36.9403 37.0044 37.0332 36.6722 37.2057C36.4442 37.31 36.3027 37.5375 36.3184 37.7801C36.4855 40.2825 34.227 46.692 32.0865 46.692C31.6973 46.692 31.5086 46.2863 31.5086 45.6303C31.5086 43.8218 32.6251 40.0019 33.1872 38.254C33.26 38.0266 33.2993 37.8313 33.2993 37.6607C33.2993 37.1811 32.9926 36.9365 32.2968 36.9365C31.5322 36.9365 30.7027 37.2171 29.9027 38.5744C29.6216 37.3763 28.7823 36.8531 27.6088 36.8531C25.6845 36.8531 23.5342 38.8171 22.5907 41.3744C21.3268 44.7905 18.7774 48.0891 15.3474 48.0891C12.2339 48.0891 10.5907 45.5905 10.5907 41.6417C10.5907 35.9412 14.9287 31.2834 18.1484 31.2834C19.6875 31.2834 20.4226 32.2294 20.4226 33.6777C20.4226 35.4332 19.4064 36.2484 19.4064 36.9175C19.4064 37.1223 19.5833 37.3232 19.9332 37.3232C21.3307 37.3232 22.9779 35.7384 22.9779 33.5773C22.9779 31.4161 21.1577 29.8332 17.9401 29.8332C12.6211 29.8332 7.2688 34.9953 7.2688 41.6095C7.2688 46.8721 9.96167 50.0455 14.6162 50.0455C17.7926 50.0455 20.5661 47.6626 22.0619 44.8834C22.231 47.1867 23.316 48.3905 24.969 48.3905C26.4393 48.3905 27.6285 47.5469 28.5366 46.0626C28.8865 47.6152 29.8143 48.3754 31.0192 48.3754C32.401 48.3754 33.5587 47.5318 34.6595 45.9621C34.6437 47.1943 34.9346 48.3545 36.0413 48.3545C36.5641 48.3545 37.1872 48.237 37.2993 47.7972C38.4649 43.145 41.3484 39.3479 42.229 39.3479C42.4904 39.3479 42.5631 39.5905 42.5631 39.8768C42.5631 41.1412 41.6393 43.7308 41.6393 45.3858C41.6393 47.1735 42.4275 48.3545 44.0531 48.3545C45.8575 48.3545 47.6894 46.2237 48.912 43.1109C49.2934 46.019 50.1209 48.3678 51.4143 48.3678C53.0025 48.3678 55.8211 45.1431 57.5312 41.7308C58.2015 41.8123 59.2079 41.7915 60.1749 41.1318C59.7641 42.1365 59.5224 43.236 59.5224 44.3375C59.5224 47.5052 61.0909 48.3924 62.4393 48.3924C63.9057 48.3924 65.0948 47.5488 66.0069 46.0645C66.3076 47.4029 67.0762 48.3735 68.4875 48.3735C70.6968 48.3735 72.6133 46.1953 72.6133 44.4095C72.6133 43.9375 72.4049 43.6493 72.1592 43.6493L72.1553 43.6512ZM26.3116 46.6389C25.4192 46.6389 25.0693 45.7725 25.0693 44.4796C25.0693 42.2351 26.6614 38.4891 28.344 38.4891C29.0791 38.4891 29.3563 39.3251 29.3563 40.345C29.3563 42.6237 27.8428 46.6389 26.3116 46.6389ZM56.8649 39.9431C56.3322 39.3327 56.1396 38.5005 56.1396 37.7593C56.1396 36.8455 56.4855 36.074 56.9003 36.074C57.315 36.074 57.4428 36.4683 57.4428 37.0161C57.4428 37.9337 57.1027 39.2721 56.8649 39.9431ZM63.7818 46.6389C62.8894 46.6389 62.5396 45.6436 62.5396 44.4796C62.5396 42.3147 64.1317 38.4891 65.826 38.4891C66.5612 38.4891 66.8226 39.3176 66.8226 40.345C66.8226 42.6237 65.3366 46.6389 63.7799 46.6389H63.7818Z" fill="white"/>
<path d="M72.1553 43.6512C72.0433 43.6512 71.943 43.7213 71.8899 43.8654C71.2197 45.7081 70.3155 46.8057 69.5705 46.8057C69.142 46.8057 68.969 46.345 68.969 45.6247C68.969 43.8199 70.0894 39.9905 70.6555 38.2446C70.7204 38.0341 70.7636 37.8446 70.7636 37.6834C70.7636 37.1754 70.4767 36.927 69.7632 36.927C68.9946 36.927 68.1691 37.2171 67.3651 38.5744C67.088 37.3763 66.2487 36.8531 65.0752 36.8531C63.7189 36.8531 62.4098 37.6948 61.3307 39.0597C60.2516 40.4247 58.9838 40.8721 58.0305 40.6503C58.7165 39.0313 58.972 37.8199 58.972 36.9232C58.972 35.5147 58.2506 34.6635 57.083 34.6635C55.3081 34.6635 54.286 36.2957 54.286 38.0133C54.286 39.3403 54.9091 40.7052 56.2831 41.3668C55.1332 43.8749 53.4526 46.1441 52.8157 46.1441C51.9921 46.1441 51.7504 42.2578 51.7956 39.4787C51.8251 37.8844 51.9627 37.8029 51.9627 37.3194C51.9627 37.0427 51.7759 36.8531 51.029 36.8531C49.2835 36.8531 48.745 38.2768 48.6644 39.9128C48.6388 40.5327 48.5366 41.1507 48.3636 41.7498C47.6344 44.2578 46.1327 46.1612 45.1518 46.1612C44.6978 46.1612 44.574 45.7232 44.574 45.1488C44.574 43.3441 45.6236 41.0863 45.6236 39.1621C45.6236 37.7479 44.9808 36.8531 43.7681 36.8531C42.341 36.8531 40.4521 38.491 38.6654 41.5602C39.2531 39.2095 39.4948 36.9346 37.7533 36.9346C37.374 36.9403 37.0044 37.0332 36.6722 37.2057C36.4442 37.31 36.3027 37.5375 36.3184 37.7801C36.4855 40.2825 34.227 46.692 32.0865 46.692C31.6973 46.692 31.5086 46.2863 31.5086 45.6303C31.5086 43.8218 32.6251 40.0019 33.1872 38.254C33.26 38.0266 33.2993 37.8313 33.2993 37.6607C33.2993 37.1811 32.9926 36.9365 32.2968 36.9365C31.5322 36.9365 30.7027 37.2171 29.9027 38.5744C29.6216 37.3763 28.7823 36.8531 27.6088 36.8531C25.6845 36.8531 23.5342 38.8171 22.5907 41.3744C21.3268 44.7905 18.7774 48.0891 15.3474 48.0891C12.2339 48.0891 10.5907 45.5905 10.5907 41.6417C10.5907 35.9412 14.9287 31.2834 18.1484 31.2834C19.6875 31.2834 20.4226 32.2294 20.4226 33.6777C20.4226 35.4332 19.4064 36.2484 19.4064 36.9175C19.4064 37.1223 19.5833 37.3232 19.9332 37.3232C21.3307 37.3232 22.9779 35.7384 22.9779 33.5773C22.9779 31.4161 21.1577 29.8332 17.9401 29.8332C12.6211 29.8332 7.2688 34.9953 7.2688 41.6095C7.2688 46.8721 9.96167 50.0455 14.6162 50.0455C17.7926 50.0455 20.5661 47.6626 22.0619 44.8834C22.231 47.1867 23.316 48.3905 24.969 48.3905C26.4393 48.3905 27.6285 47.5469 28.5366 46.0626C28.8865 47.6152 29.8143 48.3754 31.0192 48.3754C32.401 48.3754 33.5587 47.5318 34.6595 45.9621C34.6437 47.1943 34.9346 48.3545 36.0413 48.3545C36.5641 48.3545 37.1872 48.237 37.2993 47.7972C38.4649 43.145 41.3484 39.3479 42.229 39.3479C42.4904 39.3479 42.5631 39.5905 42.5631 39.8768C42.5631 41.1412 41.6393 43.7308 41.6393 45.3858C41.6393 47.1735 42.4275 48.3545 44.0531 48.3545C45.8575 48.3545 47.6894 46.2237 48.912 43.1109C49.2934 46.019 50.1209 48.3678 51.4143 48.3678C53.0025 48.3678 55.8211 45.1431 57.5312 41.7308C58.2015 41.8123 59.2079 41.7915 60.1749 41.1318C59.7641 42.1365 59.5224 43.236 59.5224 44.3375C59.5224 47.5052 61.0909 48.3924 62.4393 48.3924C63.9057 48.3924 65.0948 47.5488 66.0069 46.0645C66.3076 47.4029 67.0762 48.3735 68.4875 48.3735C70.6968 48.3735 72.6133 46.1953 72.6133 44.4095C72.6133 43.9375 72.4049 43.6493 72.1592 43.6493L72.1553 43.6512ZM26.3116 46.6389C25.4192 46.6389 25.0693 45.7725 25.0693 44.4796C25.0693 42.2351 26.6614 38.4891 28.344 38.4891C29.0791 38.4891 29.3563 39.3251 29.3563 40.345C29.3563 42.6237 27.8428 46.6389 26.3116 46.6389ZM56.8649 39.9431C56.3322 39.3327 56.1396 38.5005 56.1396 37.7593C56.1396 36.8455 56.4855 36.074 56.9003 36.074C57.315 36.074 57.4428 36.4683 57.4428 37.0161C57.4428 37.9337 57.1027 39.2721 56.8649 39.9431ZM63.7818 46.6389C62.8894 46.6389 62.5396 45.6436 62.5396 44.4796C62.5396 42.3147 64.1317 38.4891 65.826 38.4891C66.5612 38.4891 66.8226 39.3176 66.8226 40.345C66.8226 42.6237 65.3366 46.6389 63.7799 46.6389H63.7818Z" fill="white"/>
<path d="M72.1553 43.6512C72.0433 43.6512 71.943 43.7213 71.8899 43.8654C71.2197 45.7081 70.3155 46.8057 69.5705 46.8057C69.142 46.8057 68.969 46.345 68.969 45.6247C68.969 43.8199 70.0894 39.9905 70.6555 38.2446C70.7204 38.0341 70.7636 37.8446 70.7636 37.6834C70.7636 37.1754 70.4767 36.927 69.7632 36.927C68.9946 36.927 68.1691 37.2171 67.3651 38.5744C67.088 37.3763 66.2487 36.8531 65.0752 36.8531C63.7189 36.8531 62.4098 37.6948 61.3307 39.0597C60.2516 40.4247 58.9838 40.8721 58.0305 40.6503C58.7165 39.0313 58.972 37.8199 58.972 36.9232C58.972 35.5147 58.2506 34.6635 57.083 34.6635C55.3081 34.6635 54.286 36.2957 54.286 38.0133C54.286 39.3403 54.9091 40.7052 56.2831 41.3668C55.1332 43.8749 53.4526 46.1441 52.8157 46.1441C51.9921 46.1441 51.7504 42.2578 51.7956 39.4787C51.8251 37.8844 51.9627 37.8029 51.9627 37.3194C51.9627 37.0427 51.7759 36.8531 51.029 36.8531C49.2835 36.8531 48.745 38.2768 48.6644 39.9128C48.6388 40.5327 48.5366 41.1507 48.3636 41.7498C47.6344 44.2578 46.1327 46.1612 45.1518 46.1612C44.6978 46.1612 44.574 45.7232 44.574 45.1488C44.574 43.3441 45.6236 41.0863 45.6236 39.1621C45.6236 37.7479 44.9808 36.8531 43.7681 36.8531C42.341 36.8531 40.4521 38.491 38.6654 41.5602C39.2531 39.2095 39.4948 36.9346 37.7533 36.9346C37.374 36.9403 37.0044 37.0332 36.6722 37.2057C36.4442 37.31 36.3027 37.5375 36.3184 37.7801C36.4855 40.2825 34.227 46.692 32.0865 46.692C31.6973 46.692 31.5086 46.2863 31.5086 45.6303C31.5086 43.8218 32.6251 40.0019 33.1872 38.254C33.26 38.0266 33.2993 37.8313 33.2993 37.6607C33.2993 37.1811 32.9926 36.9365 32.2968 36.9365C31.5322 36.9365 30.7027 37.2171 29.9027 38.5744C29.6216 37.3763 28.7823 36.8531 27.6088 36.8531C25.6845 36.8531 23.5342 38.8171 22.5907 41.3744C21.3268 44.7905 18.7774 48.0891 15.3474 48.0891C12.2339 48.0891 10.5907 45.5905 10.5907 41.6417C10.5907 35.9412 14.9287 31.2834 18.1484 31.2834C19.6875 31.2834 20.4226 32.2294 20.4226 33.6777C20.4226 35.4332 19.4064 36.2484 19.4064 36.9175C19.4064 37.1223 19.5833 37.3232 19.9332 37.3232C21.3307 37.3232 22.9779 35.7384 22.9779 33.5773C22.9779 31.4161 21.1577 29.8332 17.9401 29.8332C12.6211 29.8332 7.2688 34.9953 7.2688 41.6095C7.2688 46.8721 9.96167 50.0455 14.6162 50.0455C17.7926 50.0455 20.5661 47.6626 22.0619 44.8834C22.231 47.1867 23.316 48.3905 24.969 48.3905C26.4393 48.3905 27.6285 47.5469 28.5366 46.0626C28.8865 47.6152 29.8143 48.3754 31.0192 48.3754C32.401 48.3754 33.5587 47.5318 34.6595 45.9621C34.6437 47.1943 34.9346 48.3545 36.0413 48.3545C36.5641 48.3545 37.1872 48.237 37.2993 47.7972C38.4649 43.145 41.3484 39.3479 42.229 39.3479C42.4904 39.3479 42.5631 39.5905 42.5631 39.8768C42.5631 41.1412 41.6393 43.7308 41.6393 45.3858C41.6393 47.1735 42.4275 48.3545 44.0531 48.3545C45.8575 48.3545 47.6894 46.2237 48.912 43.1109C49.2934 46.019 50.1209 48.3678 51.4143 48.3678C53.0025 48.3678 55.8211 45.1431 57.5312 41.7308C58.2015 41.8123 59.2079 41.7915 60.1749 41.1318C59.7641 42.1365 59.5224 43.236 59.5224 44.3375C59.5224 47.5052 61.0909 48.3924 62.4393 48.3924C63.9057 48.3924 65.0948 47.5488 66.0069 46.0645C66.3076 47.4029 67.0762 48.3735 68.4875 48.3735C70.6968 48.3735 72.6133 46.1953 72.6133 44.4095C72.6133 43.9375 72.4049 43.6493 72.1592 43.6493L72.1553 43.6512ZM26.3116 46.6389C25.4192 46.6389 25.0693 45.7725 25.0693 44.4796C25.0693 42.2351 26.6614 38.4891 28.344 38.4891C29.0791 38.4891 29.3563 39.3251 29.3563 40.345C29.3563 42.6237 27.8428 46.6389 26.3116 46.6389ZM56.8649 39.9431C56.3322 39.3327 56.1396 38.5005 56.1396 37.7593C56.1396 36.8455 56.4855 36.074 56.9003 36.074C57.315 36.074 57.4428 36.4683 57.4428 37.0161C57.4428 37.9337 57.1027 39.2721 56.8649 39.9431ZM63.7818 46.6389C62.8894 46.6389 62.5396 45.6436 62.5396 44.4796C62.5396 42.3147 64.1317 38.4891 65.826 38.4891C66.5612 38.4891 66.8226 39.3176 66.8226 40.345C66.8226 42.6237 65.3366 46.6389 63.7799 46.6389H63.7818Z" fill="white"/>
<path d="M72.1553 43.6512C72.0433 43.6512 71.943 43.7213 71.8899 43.8654C71.2197 45.7081 70.3155 46.8057 69.5705 46.8057C69.142 46.8057 68.969 46.345 68.969 45.6247C68.969 43.8199 70.0894 39.9905 70.6555 38.2446C70.7204 38.0341 70.7636 37.8446 70.7636 37.6834C70.7636 37.1754 70.4767 36.927 69.7632 36.927C68.9946 36.927 68.1691 37.2171 67.3651 38.5744C67.088 37.3763 66.2487 36.8531 65.0752 36.8531C63.7189 36.8531 62.4098 37.6948 61.3307 39.0597C60.2516 40.4247 58.9838 40.8721 58.0305 40.6503C58.7165 39.0313 58.972 37.8199 58.972 36.9232C58.972 35.5147 58.2506 34.6635 57.083 34.6635C55.3081 34.6635 54.286 36.2957 54.286 38.0133C54.286 39.3403 54.9091 40.7052 56.2831 41.3668C55.1332 43.8749 53.4526 46.1441 52.8157 46.1441C51.9921 46.1441 51.7504 42.2578 51.7956 39.4787C51.8251 37.8844 51.9627 37.8029 51.9627 37.3194C51.9627 37.0427 51.7759 36.8531 51.029 36.8531C49.2835 36.8531 48.745 38.2768 48.6644 39.9128C48.6388 40.5327 48.5366 41.1507 48.3636 41.7498C47.6344 44.2578 46.1327 46.1612 45.1518 46.1612C44.6978 46.1612 44.574 45.7232 44.574 45.1488C44.574 43.3441 45.6236 41.0863 45.6236 39.1621C45.6236 37.7479 44.9808 36.8531 43.7681 36.8531C42.341 36.8531 40.4521 38.491 38.6654 41.5602C39.2531 39.2095 39.4948 36.9346 37.7533 36.9346C37.374 36.9403 37.0044 37.0332 36.6722 37.2057C36.4442 37.31 36.3027 37.5375 36.3184 37.7801C36.4855 40.2825 34.227 46.692 32.0865 46.692C31.6973 46.692 31.5086 46.2863 31.5086 45.6303C31.5086 43.8218 32.6251 40.0019 33.1872 38.254C33.26 38.0266 33.2993 37.8313 33.2993 37.6607C33.2993 37.1811 32.9926 36.9365 32.2968 36.9365C31.5322 36.9365 30.7027 37.2171 29.9027 38.5744C29.6216 37.3763 28.7823 36.8531 27.6088 36.8531C25.6845 36.8531 23.5342 38.8171 22.5907 41.3744C21.3268 44.7905 18.7774 48.0891 15.3474 48.0891C12.2339 48.0891 10.5907 45.5905 10.5907 41.6417C10.5907 35.9412 14.9287 31.2834 18.1484 31.2834C19.6875 31.2834 20.4226 32.2294 20.4226 33.6777C20.4226 35.4332 19.4064 36.2484 19.4064 36.9175C19.4064 37.1223 19.5833 37.3232 19.9332 37.3232C21.3307 37.3232 22.9779 35.7384 22.9779 33.5773C22.9779 31.4161 21.1577 29.8332 17.9401 29.8332C12.6211 29.8332 7.2688 34.9953 7.2688 41.6095C7.2688 46.8721 9.96167 50.0455 14.6162 50.0455C17.7926 50.0455 20.5661 47.6626 22.0619 44.8834C22.231 47.1867 23.316 48.3905 24.969 48.3905C26.4393 48.3905 27.6285 47.5469 28.5366 46.0626C28.8865 47.6152 29.8143 48.3754 31.0192 48.3754C32.401 48.3754 33.5587 47.5318 34.6595 45.9621C34.6437 47.1943 34.9346 48.3545 36.0413 48.3545C36.5641 48.3545 37.1872 48.237 37.2993 47.7972C38.4649 43.145 41.3484 39.3479 42.229 39.3479C42.4904 39.3479 42.5631 39.5905 42.5631 39.8768C42.5631 41.1412 41.6393 43.7308 41.6393 45.3858C41.6393 47.1735 42.4275 48.3545 44.0531 48.3545C45.8575 48.3545 47.6894 46.2237 48.912 43.1109C49.2934 46.019 50.1209 48.3678 51.4143 48.3678C53.0025 48.3678 55.8211 45.1431 57.5312 41.7308C58.2015 41.8123 59.2079 41.7915 60.1749 41.1318C59.7641 42.1365 59.5224 43.236 59.5224 44.3375C59.5224 47.5052 61.0909 48.3924 62.4393 48.3924C63.9057 48.3924 65.0948 47.5488 66.0069 46.0645C66.3076 47.4029 67.0762 48.3735 68.4875 48.3735C70.6968 48.3735 72.6133 46.1953 72.6133 44.4095C72.6133 43.9375 72.4049 43.6493 72.1592 43.6493L72.1553 43.6512ZM26.3116 46.6389C25.4192 46.6389 25.0693 45.7725 25.0693 44.4796C25.0693 42.2351 26.6614 38.4891 28.344 38.4891C29.0791 38.4891 29.3563 39.3251 29.3563 40.345C29.3563 42.6237 27.8428 46.6389 26.3116 46.6389ZM56.8649 39.9431C56.3322 39.3327 56.1396 38.5005 56.1396 37.7593C56.1396 36.8455 56.4855 36.074 56.9003 36.074C57.315 36.074 57.4428 36.4683 57.4428 37.0161C57.4428 37.9337 57.1027 39.2721 56.8649 39.9431ZM63.7818 46.6389C62.8894 46.6389 62.5396 45.6436 62.5396 44.4796C62.5396 42.3147 64.1317 38.4891 65.826 38.4891C66.5612 38.4891 66.8226 39.3176 66.8226 40.345C66.8226 42.6237 65.3366 46.6389 63.7799 46.6389H63.7818Z" fill="white"/>
<g clip-path="url(#clip0_1_49)">
<mask id="mask1_1_49" style="mask-type:luminance" maskUnits="userSpaceOnUse" x="0" y="0" width="80" height="80">
<path d="M65.258 0H14.6162C6.5439 0 0 6.3113 0 14.0967V65.7877C0 73.5731 6.5439 79.8844 14.6162 79.8844H65.258C73.3303 79.8844 79.8742 73.5731 79.8742 65.7877V14.0967C79.8742 6.3113 73.3303 0 65.258 0Z" fill="white"/>
</mask>
<g mask="url(#mask1_1_49)">
<path d="M41.9303 99.981C75.5679 99.981 102.836 73.6817 102.836 41.2398C102.836 8.79793 75.5679 -17.5014 41.9303 -17.5014C8.29277 -17.5014 -18.9758 8.79793 -18.9758 41.2398C-18.9758 73.6817 8.29277 99.981 41.9303 99.981Z" fill="#7D2AE7"/>
<path d="M41.9303 99.981C75.5679 99.981 102.836 73.6817 102.836 41.2398C102.836 8.79793 75.5679 -17.5014 41.9303 -17.5014C8.29277 -17.5014 -18.9758 8.79793 -18.9758 41.2398C-18.9758 73.6817 8.29277 99.981 41.9303 99.981Z" fill="url(#paint4_radial_1_49)"/>
<path d="M41.9303 99.981C75.5679 99.981 102.836 73.6817 102.836 41.2398C102.836 8.79793 75.5679 -17.5014 41.9303 -17.5014C8.29277 -17.5014 -18.9758 8.79793 -18.9758 41.2398C-18.9758 73.6817 8.29277 99.981 41.9303 99.981Z" fill="url(#paint5_radial_1_49)"/>
<path d="M41.9303 99.981C75.5679 99.981 102.836 73.6817 102.836 41.2398C102.836 8.79793 75.5679 -17.5014 41.9303 -17.5014C8.29277 -17.5014 -18.9758 8.79793 -18.9758 41.2398C-18.9758 73.6817 8.29277 99.981 41.9303 99.981Z" fill="url(#paint6_radial_1_49)"/>
<path d="M35.3573 98.6844C68.9949 98.6844 96.2634 72.385 96.2634 39.9431C96.2634 7.50126 68.9949 -18.7981 35.3573 -18.7981C1.71978 -18.7981 -25.5488 7.50126 -25.5488 39.9431C-25.5488 72.385 1.71978 98.6844 35.3573 98.6844Z" fill="url(#paint7_radial_1_49)"/>
</g>
<path d="M72.1553 43.6512C72.0432 43.6512 71.943 43.7213 71.8899 43.8654C71.2197 45.7081 70.3155 46.8057 69.5705 46.8057C69.142 46.8057 68.969 46.345 68.969 45.6247C68.969 43.8199 70.0894 39.9905 70.6555 38.2446C70.7204 38.0341 70.7636 37.8446 70.7636 37.6834C70.7636 37.1754 70.4767 36.927 69.7632 36.927C68.9946 36.927 68.169 37.2171 67.3651 38.5744C67.088 37.3763 66.2487 36.8531 65.0752 36.8531C63.7189 36.8531 62.4098 37.6948 61.3307 39.0597C60.2516 40.4247 58.9838 40.8721 58.0305 40.6503C58.7165 39.0313 58.972 37.8199 58.972 36.9232C58.972 35.5147 58.2506 34.6635 57.0831 34.6635C55.3081 34.6635 54.286 36.2958 54.286 38.0133C54.286 39.3403 54.9091 40.7052 56.2831 41.3668C55.1332 43.8749 53.4526 46.1441 52.8157 46.1441C51.9921 46.1441 51.7504 42.2578 51.7956 39.4787C51.8251 37.8844 51.9627 37.8029 51.9627 37.3194C51.9627 37.0427 51.7759 36.8531 51.029 36.8531C49.2835 36.8531 48.745 38.2768 48.6644 39.9128C48.6388 40.5327 48.5366 41.1507 48.3636 41.7498C47.6344 44.2578 46.1327 46.1612 45.1518 46.1612C44.6978 46.1612 44.574 45.7232 44.574 45.1488C44.574 43.3441 45.6236 41.0863 45.6236 39.1621C45.6236 37.7479 44.9808 36.8531 43.7681 36.8531C42.341 36.8531 40.4521 38.491 38.6654 41.5602C39.2531 39.2095 39.4948 36.9346 37.7533 36.9346C37.374 36.9403 37.0044 37.0332 36.6722 37.2057C36.4442 37.31 36.3027 37.5375 36.3184 37.7801C36.4855 40.2825 34.227 46.692 32.0865 46.692C31.6973 46.692 31.5086 46.2863 31.5086 45.6303C31.5086 43.8218 32.6251 40.0019 33.1872 38.254C33.26 38.0266 33.2993 37.8313 33.2993 37.6607C33.2993 37.1811 32.9926 36.9365 32.2968 36.9365C31.5322 36.9365 30.7027 37.2171 29.9027 38.5744C29.6216 37.3763 28.7823 36.8531 27.6089 36.8531C25.6845 36.8531 23.5342 38.8171 22.5907 41.3744C21.3268 44.7905 18.7774 48.0891 15.3474 48.0891C12.2339 48.0891 10.5907 45.5905 10.5907 41.6417C10.5907 35.9412 14.9288 31.2834 18.1484 31.2834C19.6875 31.2834 20.4226 32.2294 20.4226 33.6777C20.4226 35.4332 19.4064 36.2484 19.4064 36.9176C19.4064 37.1223 19.5833 37.3232 19.9332 37.3232C21.3307 37.3232 22.9779 35.7384 22.9779 33.5773C22.9779 31.4161 21.1577 29.8332 17.9401 29.8332C12.6211 29.8332 7.2688 34.9953 7.2688 41.6095C7.2688 46.8721 9.96167 50.0455 14.6162 50.0455C17.7926 50.0455 20.5661 47.6626 22.0619 44.8834C22.231 47.1867 23.316 48.3905 24.969 48.3905C26.4393 48.3905 27.6285 47.5469 28.5366 46.0626C28.8865 47.6152 29.8143 48.3754 31.0192 48.3754C32.401 48.3754 33.5587 47.5318 34.6595 45.9621C34.6437 47.1943 34.9346 48.3545 36.0413 48.3545C36.5641 48.3545 37.1872 48.237 37.2993 47.7972C38.4649 43.145 41.3484 39.3479 42.229 39.3479C42.4904 39.3479 42.5631 39.5905 42.5631 39.8768C42.5631 41.1412 41.6393 43.7308 41.6393 45.3858C41.6393 47.1735 42.4275 48.3545 44.0531 48.3545C45.8575 48.3545 47.6894 46.2237 48.912 43.1109C49.2934 46.019 50.1209 48.3678 51.4143 48.3678C53.0025 48.3678 55.8211 45.1431 57.5312 41.7308C58.2015 41.8123 59.2079 41.7915 60.1749 41.1318C59.7641 42.1365 59.5224 43.236 59.5224 44.3375C59.5224 47.5052 61.0909 48.3924 62.4393 48.3924C63.9057 48.3924 65.0948 47.5488 66.0069 46.0645C66.3076 47.4029 67.0762 48.3735 68.4875 48.3735C70.6968 48.3735 72.6133 46.1953 72.6133 44.4095C72.6133 43.9375 72.4049 43.6493 72.1592 43.6493L72.1553 43.6512ZM26.3116 46.6389C25.4192 46.6389 25.0693 45.7725 25.0693 44.4796C25.0693 42.2351 26.6614 38.4891 28.344 38.4891C29.0791 38.4891 29.3563 39.3251 29.3563 40.345C29.3563 42.6237 27.8428 46.6389 26.3116 46.6389ZM56.8649 39.9431C56.3322 39.3327 56.1396 38.5005 56.1396 37.7593C56.1396 36.8455 56.4855 36.0739 56.9003 36.0739C57.315 36.0739 57.4428 36.4683 57.4428 37.0161C57.4428 37.9337 57.1027 39.2721 56.8649 39.9431ZM63.7818 46.6389C62.8894 46.6389 62.5396 45.6436 62.5396 44.4796C62.5396 42.3147 64.1317 38.4891 65.826 38.4891C66.5612 38.4891 66.8226 39.3176 66.8226 40.345C66.8226 42.6237 65.3366 46.6389 63.7799 46.6389H63.7818Z" fill="white"/>
<path d="M72.1553 43.6512C72.0432 43.6512 71.943 43.7213 71.8899 43.8654C71.2197 45.7081 70.3155 46.8057 69.5705 46.8057C69.142 46.8057 68.969 46.345 68.969 45.6247C68.969 43.8199 70.0894 39.9905 70.6555 38.2446C70.7204 38.0341 70.7636 37.8446 70.7636 37.6834C70.7636 37.1754 70.4767 36.927 69.7632 36.927C68.9946 36.927 68.169 37.2171 67.3651 38.5744C67.088 37.3763 66.2487 36.8531 65.0752 36.8531C63.7189 36.8531 62.4098 37.6948 61.3307 39.0597C60.2516 40.4247 58.9838 40.8721 58.0305 40.6503C58.7165 39.0313 58.972 37.8199 58.972 36.9232C58.972 35.5147 58.2506 34.6635 57.0831 34.6635C55.3081 34.6635 54.286 36.2958 54.286 38.0133C54.286 39.3403 54.9091 40.7052 56.2831 41.3668C55.1332 43.8749 53.4526 46.1441 52.8157 46.1441C51.9921 46.1441 51.7504 42.2578 51.7956 39.4787C51.8251 37.8844 51.9627 37.8029 51.9627 37.3194C51.9627 37.0427 51.7759 36.8531 51.029 36.8531C49.2835 36.8531 48.745 38.2768 48.6644 39.9128C48.6388 40.5327 48.5366 41.1507 48.3636 41.7498C47.6344 44.2578 46.1327 46.1612 45.1518 46.1612C44.6978 46.1612 44.574 45.7232 44.574 45.1488C44.574 43.3441 45.6236 41.0863 45.6236 39.1621C45.6236 37.7479 44.9808 36.8531 43.7681 36.8531C42.341 36.8531 40.4521 38.491 38.6654 41.5602C39.2531 39.2095 39.4948 36.9346 37.7533 36.9346C37.374 36.9403 37.0044 37.0332 36.6722 37.2057C36.4442 37.31 36.3027 37.5375 36.3184 37.7801C36.4855 40.2825 34.227 46.692 32.0865 46.692C31.6973 46.692 31.5086 46.2863 31.5086 45.6303C31.5086 43.8218 32.6251 40.0019 33.1872 38.254C33.26 38.0266 33.2993 37.8313 33.2993 37.6607C33.2993 37.1811 32.9926 36.9365 32.2968 36.9365C31.5322 36.9365 30.7027 37.2171 29.9027 38.5744C29.6216 37.3763 28.7823 36.8531 27.6089 36.8531C25.6845 36.8531 23.5342 38.8171 22.5907 41.3744C21.3268 44.7905 18.7774 48.0891 15.3474 48.0891C12.2339 48.0891 10.5907 45.5905 10.5907 41.6417C10.5907 35.9412 14.9288 31.2834 18.1484 31.2834C19.6875 31.2834 20.4226 32.2294 20.4226 33.6777C20.4226 35.4332 19.4064 36.2484 19.4064 36.9176C19.4064 37.1223 19.5833 37.3232 19.9332 37.3232C21.3307 37.3232 22.9779 35.7384 22.9779 33.5773C22.9779 31.4161 21.1577 29.8332 17.9401 29.8332C12.6211 29.8332 7.2688 34.9953 7.2688 41.6095C7.2688 46.8721 9.96167 50.0455 14.6162 50.0455C17.7926 50.0455 20.5661 47.6626 22.0619 44.8834C22.231 47.1867 23.316 48.3905 24.969 48.3905C26.4393 48.3905 27.6285 47.5469 28.5366 46.0626C28.8865 47.6152 29.8143 48.3754 31.0192 48.3754C32.401 48.3754 33.5587 47.5318 34.6595 45.9621C34.6437 47.1943 34.9346 48.3545 36.0413 48.3545C36.5641 48.3545 37.1872 48.237 37.2993 47.7972C38.4649 43.145 41.3484 39.3479 42.229 39.3479C42.4904 39.3479 42.5631 39.5905 42.5631 39.8768C42.5631 41.1412 41.6393 43.7308 41.6393 45.3858C41.6393 47.1735 42.4275 48.3545 44.0531 48.3545C45.8575 48.3545 47.6894 46.2237 48.912 43.1109C49.2934 46.019 50.1209 48.3678 51.4143 48.3678C53.0025 48.3678 55.8211 45.1431 57.5312 41.7308C58.2015 41.8123 59.2079 41.7915 60.1749 41.1318C59.7641 42.1365 59.5224 43.236 59.5224 44.3375C59.5224 47.5052 61.0909 48.3924 62.4393 48.3924C63.9057 48.3924 65.0948 47.5488 66.0069 46.0645C66.3076 47.4029 67.0762 48.3735 68.4875 48.3735C70.6968 48.3735 72.6133 46.1953 72.6133 44.4095C72.6133 43.9375 72.4049 43.6493 72.1592 43.6493L72.1553 43.6512ZM26.3116 46.6389C25.4192 46.6389 25.0693 45.7725 25.0693 44.4796C25.0693 42.2351 26.6614 38.4891 28.344 38.4891C29.0791 38.4891 29.3563 39.3251 29.3563 40.345C29.3563 42.6237 27.8428 46.6389 26.3116 46.6389ZM56.8649 39.9431C56.3322 39.3327 56.1396 38.5005 56.1396 37.7593C56.1396 36.8455 56.4855 36.0739 56.9003 36.0739C57.315 36.0739 57.4428 36.4683 57.4428 37.0161C57.4428 37.9337 57.1027 39.2721 56.8649 39.9431ZM63.7818 46.6389C62.8894 46.6389 62.5396 45.6436 62.5396 44.4796C62.5396 42.3147 64.1317 38.4891 65.826 38.4891C66.5612 38.4891 66.8226 39.3176 66.8226 40.345C66.8226 42.6237 65.3366 46.6389 63.7799 46.6389H63.7818Z" fill="white"/>
<path d="M72.1553 43.6512C72.0432 43.6512 71.943 43.7213 71.8899 43.8654C71.2197 45.7081 70.3155 46.8057 69.5705 46.8057C69.142 46.8057 68.969 46.345 68.969 45.6247C68.969 43.8199 70.0894 39.9905 70.6555 38.2446C70.7204 38.0341 70.7636 37.8446 70.7636 37.6834C70.7636 37.1754 70.4767 36.927 69.7632 36.927C68.9946 36.927 68.169 37.2171 67.3651 38.5744C67.088 37.3763 66.2487 36.8531 65.0752 36.8531C63.7189 36.8531 62.4098 37.6948 61.3307 39.0597C60.2516 40.4247 58.9838 40.8721 58.0305 40.6503C58.7165 39.0313 58.972 37.8199 58.972 36.9232C58.972 35.5147 58.2506 34.6635 57.0831 34.6635C55.3081 34.6635 54.286 36.2958 54.286 38.0133C54.286 39.3403 54.9091 40.7052 56.2831 41.3668C55.1332 43.8749 53.4526 46.1441 52.8157 46.1441C51.9921 46.1441 51.7504 42.2578 51.7956 39.4787C51.8251 37.8844 51.9627 37.8029 51.9627 37.3194C51.9627 37.0427 51.7759 36.8531 51.029 36.8531C49.2835 36.8531 48.745 38.2768 48.6644 39.9128C48.6388 40.5327 48.5366 41.1507 48.3636 41.7498C47.6344 44.2578 46.1327 46.1612 45.1518 46.1612C44.6978 46.1612 44.574 45.7232 44.574 45.1488C44.574 43.3441 45.6236 41.0863 45.6236 39.1621C45.6236 37.7479 44.9808 36.8531 43.7681 36.8531C42.341 36.8531 40.4521 38.491 38.6654 41.5602C39.2531 39.2095 39.4948 36.9346 37.7533 36.9346C37.374 36.9403 37.0044 37.0332 36.6722 37.2057C36.4442 37.31 36.3027 37.5375 36.3184 37.7801C36.4855 40.2825 34.227 46.692 32.0865 46.692C31.6973 46.692 31.5086 46.2863 31.5086 45.6303C31.5086 43.8218 32.6251 40.0019 33.1872 38.254C33.26 38.0266 33.2993 37.8313 33.2993 37.6607C33.2993 37.1811 32.9926 36.9365 32.2968 36.9365C31.5322 36.9365 30.7027 37.2171 29.9027 38.5744C29.6216 37.3763 28.7823 36.8531 27.6089 36.8531C25.6845 36.8531 23.5342 38.8171 22.5907 41.3744C21.3268 44.7905 18.7774 48.0891 15.3474 48.0891C12.2339 48.0891 10.5907 45.5905 10.5907 41.6417C10.5907 35.9412 14.9288 31.2834 18.1484 31.2834C19.6875 31.2834 20.4226 32.2294 20.4226 33.6777C20.4226 35.4332 19.4064 36.2484 19.4064 36.9176C19.4064 37.1223 19.5833 37.3232 19.9332 37.3232C21.3307 37.3232 22.9779 35.7384 22.9779 33.5773C22.9779 31.4161 21.1577 29.8332 17.9401 29.8332C12.6211 29.8332 7.2688 34.9953 7.2688 41.6095C7.2688 46.8721 9.96167 50.0455 14.6162 50.0455C17.7926 50.0455 20.5661 47.6626 22.0619 44.8834C22.231 47.1867 23.316 48.3905 24.969 48.3905C26.4393 48.3905 27.6285 47.5469 28.5366 46.0626C28.8865 47.6152 29.8143 48.3754 31.0192 48.3754C32.401 48.3754 33.5587 47.5318 34.6595 45.9621C34.6437 47.1943 34.9346 48.3545 36.0413 48.3545C36.5641 48.3545 37.1872 48.237 37.2993 47.7972C38.4649 43.145 41.3484 39.3479 42.229 39.3479C42.4904 39.3479 42.5631 39.5905 42.5631 39.8768C42.5631 41.1412 41.6393 43.7308 41.6393 45.3858C41.6393 47.1735 42.4275 48.3545 44.0531 48.3545C45.8575 48.3545 47.6894 46.2237 48.912 43.1109C49.2934 46.019 50.1209 48.3678 51.4143 48.3678C53.0025 48.3678 55.8211 45.1431 57.5312 41.7308C58.2015 41.8123 59.2079 41.7915 60.1749 41.1318C59.7641 42.1365 59.5224 43.236 59.5224 44.3375C59.5224 47.5052 61.0909 48.3924 62.4393 48.3924C63.9057 48.3924 65.0948 47.5488 66.0069 46.0645C66.3076 47.4029 67.0762 48.3735 68.4875 48.3735C70.6968 48.3735 72.6133 46.1953 72.6133 44.4095C72.6133 43.9375 72.4049 43.6493 72.1592 43.6493L72.1553 43.6512ZM26.3116 46.6389C25.4192 46.6389 25.0693 45.7725 25.0693 44.4796C25.0693 42.2351 26.6614 38.4891 28.344 38.4891C29.0791 38.4891 29.3563 39.3251 29.3563 40.345C29.3563 42.6237 27.8428 46.6389 26.3116 46.6389ZM56.8649 39.9431C56.3322 39.3327 56.1396 38.5005 56.1396 37.7593C56.1396 36.8455 56.4855 36.0739 56.9003 36.0739C57.315 36.0739 57.4428 36.4683 57.4428 37.0161C57.4428 37.9337 57.1027 39.2721 56.8649 39.9431ZM63.7818 46.6389C62.8894 46.6389 62.5396 45.6436 62.5396 44.4796C62.5396 42.3147 64.1317 38.4891 65.826 38.4891C66.5612 38.4891 66.8226 39.3176 66.8226 40.345C66.8226 42.6237 65.3366 46.6389 63.7799 46.6389H63.7818Z" fill="white"/>
<path d="M72.1553 43.6512C72.0432 43.6512 71.943 43.7213 71.8899 43.8654C71.2197 45.7081 70.3155 46.8057 69.5705 46.8057C69.142 46.8057 68.969 46.345 68.969 45.6247C68.969 43.8199 70.0894 39.9905 70.6555 38.2446C70.7204 38.0341 70.7636 37.8446 70.7636 37.6834C70.7636 37.1754 70.4767 36.927 69.7632 36.927C68.9946 36.927 68.169 37.2171 67.3651 38.5744C67.088 37.3763 66.2487 36.8531 65.0752 36.8531C63.7189 36.8531 62.4098 37.6948 61.3307 39.0597C60.2516 40.4247 58.9838 40.8721 58.0305 40.6503C58.7165 39.0313 58.972 37.8199 58.972 36.9232C58.972 35.5147 58.2506 34.6635 57.0831 34.6635C55.3081 34.6635 54.286 36.2958 54.286 38.0133C54.286 39.3403 54.9091 40.7052 56.2831 41.3668C55.1332 43.8749 53.4526 46.1441 52.8157 46.1441C51.9921 46.1441 51.7504 42.2578 51.7956 39.4787C51.8251 37.8844 51.9627 37.8029 51.9627 37.3194C51.9627 37.0427 51.7759 36.8531 51.029 36.8531C49.2835 36.8531 48.745 38.2768 48.6644 39.9128C48.6388 40.5327 48.5366 41.1507 48.3636 41.7498C47.6344 44.2578 46.1327 46.1612 45.1518 46.1612C44.6978 46.1612 44.574 45.7232 44.574 45.1488C44.574 43.3441 45.6236 41.0863 45.6236 39.1621C45.6236 37.7479 44.9808 36.8531 43.7681 36.8531C42.341 36.8531 40.4521 38.491 38.6654 41.5602C39.2531 39.2095 39.4948 36.9346 37.7533 36.9346C37.374 36.9403 37.0044 37.0332 36.6722 37.2057C36.4442 37.31 36.3027 37.5375 36.3184 37.7801C36.4855 40.2825 34.227 46.692 32.0865 46.692C31.6973 46.692 31.5086 46.2863 31.5086 45.6303C31.5086 43.8218 32.6251 40.0019 33.1872 38.254C33.26 38.0266 33.2993 37.8313 33.2993 37.6607C33.2993 37.1811 32.9926 36.9365 32.2968 36.9365C31.5322 36.9365 30.7027 37.2171 29.9027 38.5744C29.6216 37.3763 28.7823 36.8531 27.6089 36.8531C25.6845 36.8531 23.5342 38.8171 22.5907 41.3744C21.3268 44.7905 18.7774 48.0891 15.3474 48.0891C12.2339 48.0891 10.5907 45.5905 10.5907 41.6417C10.5907 35.9412 14.9288 31.2834 18.1484 31.2834C19.6875 31.2834 20.4226 32.2294 20.4226 33.6777C20.4226 35.4332 19.4064 36.2484 19.4064 36.9176C19.4064 37.1223 19.5833 37.3232 19.9332 37.3232C21.3307 37.3232 22.9779 35.7384 22.9779 33.5773C22.9779 31.4161 21.1577 29.8332 17.9401 29.8332C12.6211 29.8332 7.2688 34.9953 7.2688 41.6095C7.2688 46.8721 9.96167 50.0455 14.6162 50.0455C17.7926 50.0455 20.5661 47.6626 22.0619 44.8834C22.231 47.1867 23.316 48.3905 24.969 48.3905C26.4393 48.3905 27.6285 47.5469 28.5366 46.0626C28.8865 47.6152 29.8143 48.3754 31.0192 48.3754C32.401 48.3754 33.5587 47.5318 34.6595 45.9621C34.6437 47.1943 34.9346 48.3545 36.0413 48.3545C36.5641 48.3545 37.1872 48.237 37.2993 47.7972C38.4649 43.145 41.3484 39.3479 42.229 39.3479C42.4904 39.3479 42.5631 39.5905 42.5631 39.8768C42.5631 41.1412 41.6393 43.7308 41.6393 45.3858C41.6393 47.1735 42.4275 48.3545 44.0531 48.3545C45.8575 48.3545 47.6894 46.2237 48.912 43.1109C49.2934 46.019 50.1209 48.3678 51.4143 48.3678C53.0025 48.3678 55.8211 45.1431 57.5312 41.7308C58.2015 41.8123 59.2079 41.7915 60.1749 41.1318C59.7641 42.1365 59.5224 43.236 59.5224 44.3375C59.5224 47.5052 61.0909 48.3924 62.4393 48.3924C63.9057 48.3924 65.0948 47.5488 66.0069 46.0645C66.3076 47.4029 67.0762 48.3735 68.4875 48.3735C70.6968 48.3735 72.6133 46.1953 72.6133 44.4095C72.6133 43.9375 72.4049 43.6493 72.1592 43.6493L72.1553 43.6512ZM26.3116 46.6389C25.4192 46.6389 25.0693 45.7725 25.0693 44.4796C25.0693 42.2351 26.6614 38.4891 28.344 38.4891C29.0791 38.4891 29.3563 39.3251 29.3563 40.345C29.3563 42.6237 27.8428 46.6389 26.3116 46.6389ZM56.8649 39.9431C56.3322 39.3327 56.1396 38.5005 56.1396 37.7593C56.1396 36.8455 56.4855 36.0739 56.9003 36.0739C57.315 36.0739 57.4428 36.4683 57.4428 37.0161C57.4428 37.9337 57.1027 39.2721 56.8649 39.9431ZM63.7818 46.6389C62.8894 46.6389 62.5396 45.6436 62.5396 44.4796C62.5396 42.3147 64.1317 38.4891 65.826 38.4891C66.5612 38.4891 66.8226 39.3176 66.8226 40.345C66.8226 42.6237 65.3366 46.6389 63.7799 46.6389H63.7818Z" fill="white"/>
<path d="M72.1553 43.6512C72.0432 43.6512 71.943 43.7213 71.8899 43.8654C71.2197 45.7081 70.3155 46.8057 69.5705 46.8057C69.142 46.8057 68.969 46.345 68.969 45.6247C68.969 43.8199 70.0894 39.9905 70.6555 38.2446C70.7204 38.0341 70.7636 37.8446 70.7636 37.6834C70.7636 37.1754 70.4767 36.927 69.7632 36.927C68.9946 36.927 68.169 37.2171 67.3651 38.5744C67.088 37.3763 66.2487 36.8531 65.0752 36.8531C63.7189 36.8531 62.4098 37.6948 61.3307 39.0597C60.2516 40.4247 58.9838 40.8721 58.0305 40.6503C58.7165 39.0313 58.972 37.8199 58.972 36.9232C58.972 35.5147 58.2506 34.6635 57.0831 34.6635C55.3081 34.6635 54.286 36.2958 54.286 38.0133C54.286 39.3403 54.9091 40.7052 56.2831 41.3668C55.1332 43.8749 53.4526 46.1441 52.8157 46.1441C51.9921 46.1441 51.7504 42.2578 51.7956 39.4787C51.8251 37.8844 51.9627 37.8029 51.9627 37.3194C51.9627 37.0427 51.7759 36.8531 51.029 36.8531C49.2835 36.8531 48.745 38.2768 48.6644 39.9128C48.6388 40.5327 48.5366 41.1507 48.3636 41.7498C47.6344 44.2578 46.1327 46.1612 45.1518 46.1612C44.6978 46.1612 44.574 45.7232 44.574 45.1488C44.574 43.3441 45.6236 41.0863 45.6236 39.1621C45.6236 37.7479 44.9808 36.8531 43.7681 36.8531C42.341 36.8531 40.4521 38.491 38.6654 41.5602C39.2531 39.2095 39.4948 36.9346 37.7533 36.9346C37.374 36.9403 37.0044 37.0332 36.6722 37.2057C36.4442 37.31 36.3027 37.5375 36.3184 37.7801C36.4855 40.2825 34.227 46.692 32.0865 46.692C31.6973 46.692 31.5086 46.2863 31.5086 45.6303C31.5086 43.8218 32.6251 40.0019 33.1872 38.254C33.26 38.0266 33.2993 37.8313 33.2993 37.6607C33.2993 37.1811 32.9926 36.9365 32.2968 36.9365C31.5322 36.9365 30.7027 37.2171 29.9027 38.5744C29.6216 37.3763 28.7823 36.8531 27.6089 36.8531C25.6845 36.8531 23.5342 38.8171 22.5907 41.3744C21.3268 44.7905 18.7774 48.0891 15.3474 48.0891C12.2339 48.0891 10.5907 45.5905 10.5907 41.6417C10.5907 35.9412 14.9288 31.2834 18.1484 31.2834C19.6875 31.2834 20.4226 32.2294 20.4226 33.6777C20.4226 35.4332 19.4064 36.2484 19.4064 36.9176C19.4064 37.1223 19.5833 37.3232 19.9332 37.3232C21.3307 37.3232 22.9779 35.7384 22.9779 33.5773C22.9779 31.4161 21.1577 29.8332 17.9401 29.8332C12.6211 29.8332 7.2688 34.9953 7.2688 41.6095C7.2688 46.8721 9.96167 50.0455 14.6162 50.0455C17.7926 50.0455 20.5661 47.6626 22.0619 44.8834C22.231 47.1867 23.316 48.3905 24.969 48.3905C26.4393 48.3905 27.6285 47.5469 28.5366 46.0626C28.8865 47.6152 29.8143 48.3754 31.0192 48.3754C32.401 48.3754 33.5587 47.5318 34.6595 45.9621C34.6437 47.1943 34.9346 48.3545 36.0413 48.3545C36.5641 48.3545 37.1872 48.237 37.2993 47.7972C38.4649 43.145 41.3484 39.3479 42.229 39.3479C42.4904 39.3479 42.5631 39.5905 42.5631 39.8768C42.5631 41.1412 41.6393 43.7308 41.6393 45.3858C41.6393 47.1735 42.4275 48.3545 44.0531 48.3545C45.8575 48.3545 47.6894 46.2237 48.912 43.1109C49.2934 46.019 50.1209 48.3678 51.4143 48.3678C53.0025 48.3678 55.8211 45.1431 57.5312 41.7308C58.2015 41.8123 59.2079 41.7915 60.1749 41.1318C59.7641 42.1365 59.5224 43.236 59.5224 44.3375C59.5224 47.5052 61.0909 48.3924 62.4393 48.3924C63.9057 48.3924 65.0948 47.5488 66.0069 46.0645C66.3076 47.4029 67.0762 48.3735 68.4875 48.3735C70.6968 48.3735 72.6133 46.1953 72.6133 44.4095C72.6133 43.9375 72.4049 43.6493 72.1592 43.6493L72.1553 43.6512ZM26.3116 46.6389C25.4192 46.6389 25.0693 45.7725 25.0693 44.4796C25.0693 42.2351 26.6614 38.4891 28.344 38.4891C29.0791 38.4891 29.3563 39.3251 29.3563 40.345C29.3563 42.6237 27.8428 46.6389 26.3116 46.6389ZM56.8649 39.9431C56.3322 39.3327 56.1396 38.5005 56.1396 37.7593C56.1396 36.8455 56.4855 36.0739 56.9003 36.0739C57.315 36.0739 57.4428 36.4683 57.4428 37.0161C57.4428 37.9337 57.1027 39.2721 56.8649 39.9431ZM63.7818 46.6389C62.8894 46.6389 62.5396 45.6436 62.5396 44.4796C62.5396 42.3147 64.1317 38.4891 65.826 38.4891C66.5612 38.4891 66.8226 39.3176 66.8226 40.345C66.8226 42.6237 65.3366 46.6389 63.7799 46.6389H63.7818Z" fill="white"/>
<path d="M72.1553 43.6512C72.0432 43.6512 71.943 43.7213 71.8899 43.8654C71.2197 45.7081 70.3155 46.8057 69.5705 46.8057C69.142 46.8057 68.969 46.345 68.969 45.6247C68.969 43.8199 70.0894 39.9905 70.6555 38.2446C70.7204 38.0341 70.7636 37.8446 70.7636 37.6834C70.7636 37.1754 70.4767 36.927 69.7632 36.927C68.9946 36.927 68.169 37.2171 67.3651 38.5744C67.088 37.3763 66.2487 36.8531 65.0752 36.8531C63.7189 36.8531 62.4098 37.6948 61.3307 39.0597C60.2516 40.4247 58.9838 40.8721 58.0305 40.6503C58.7165 39.0313 58.972 37.8199 58.972 36.9232C58.972 35.5147 58.2506 34.6635 57.0831 34.6635C55.3081 34.6635 54.286 36.2958 54.286 38.0133C54.286 39.3403 54.9091 40.7052 56.2831 41.3668C55.1332 43.8749 53.4526 46.1441 52.8157 46.1441C51.9921 46.1441 51.7504 42.2578 51.7956 39.4787C51.8251 37.8844 51.9627 37.8029 51.9627 37.3194C51.9627 37.0427 51.7759 36.8531 51.029 36.8531C49.2835 36.8531 48.745 38.2768 48.6644 39.9128C48.6388 40.5327 48.5366 41.1507 48.3636 41.7498C47.6344 44.2578 46.1327 46.1612 45.1518 46.1612C44.6978 46.1612 44.574 45.7232 44.574 45.1488C44.574 43.3441 45.6236 41.0863 45.6236 39.1621C45.6236 37.7479 44.9808 36.8531 43.7681 36.8531C42.341 36.8531 40.4521 38.491 38.6654 41.5602C39.2531 39.2095 39.4948 36.9346 37.7533 36.9346C37.374 36.9403 37.0044 37.0332 36.6722 37.2057C36.4442 37.31 36.3027 37.5375 36.3184 37.7801C36.4855 40.2825 34.227 46.692 32.0865 46.692C31.6973 46.692 31.5086 46.2863 31.5086 45.6303C31.5086 43.8218 32.6251 40.0019 33.1872 38.254C33.26 38.0266 33.2993 37.8313 33.2993 37.6607C33.2993 37.1811 32.9926 36.9365 32.2968 36.9365C31.5322 36.9365 30.7027 37.2171 29.9027 38.5744C29.6216 37.3763 28.7823 36.8531 27.6089 36.8531C25.6845 36.8531 23.5342 38.8171 22.5907 41.3744C21.3268 44.7905 18.7774 48.0891 15.3474 48.0891C12.2339 48.0891 10.5907 45.5905 10.5907 41.6417C10.5907 35.9412 14.9288 31.2834 18.1484 31.2834C19.6875 31.2834 20.4226 32.2294 20.4226 33.6777C20.4226 35.4332 19.4064 36.2484 19.4064 36.9176C19.4064 37.1223 19.5833 37.3232 19.9332 37.3232C21.3307 37.3232 22.9779 35.7384 22.9779 33.5773C22.9779 31.4161 21.1577 29.8332 17.9401 29.8332C12.6211 29.8332 7.2688 34.9953 7.2688 41.6095C7.2688 46.8721 9.96167 50.0455 14.6162 50.0455C17.7926 50.0455 20.5661 47.6626 22.0619 44.8834C22.231 47.1867 23.316 48.3905 24.969 48.3905C26.4393 48.3905 27.6285 47.5469 28.5366 46.0626C28.8865 47.6152 29.8143 48.3754 31.0192 48.3754C32.401 48.3754 33.5587 47.5318 34.6595 45.9621C34.6437 47.1943 34.9346 48.3545 36.0413 48.3545C36.5641 48.3545 37.1872 48.237 37.2993 47.7972C38.4649 43.145 41.3484 39.3479 42.229 39.3479C42.4904 39.3479 42.5631 39.5905 42.5631 39.8768C42.5631 41.1412 41.6393 43.7308 41.6393 45.3858C41.6393 47.1735 42.4275 48.3545 44.0531 48.3545C45.8575 48.3545 47.6894 46.2237 48.912 43.1109C49.2934 46.019 50.1209 48.3678 51.4143 48.3678C53.0025 48.3678 55.8211 45.1431 57.5312 41.7308C58.2015 41.8123 59.2079 41.7915 60.1749 41.1318C59.7641 42.1365 59.5224 43.236 59.5224 44.3375C59.5224 47.5052 61.0909 48.3924 62.4393 48.3924C63.9057 48.3924 65.0948 47.5488 66.0069 46.0645C66.3076 47.4029 67.0762 48.3735 68.4875 48.3735C70.6968 48.3735 72.6133 46.1953 72.6133 44.4095C72.6133 43.9375 72.4049 43.6493 72.1592 43.6493L72.1553 43.6512ZM26.3116 46.6389C25.4192 46.6389 25.0693 45.7725 25.0693 44.4796C25.0693 42.2351 26.6614 38.4891 28.344 38.4891C29.0791 38.4891 29.3563 39.3251 29.3563 40.345C29.3563 42.6237 27.8428 46.6389 26.3116 46.6389ZM56.8649 39.9431C56.3322 39.3327 56.1396 38.5005 56.1396 37.7593C56.1396 36.8455 56.4855 36.0739 56.9003 36.0739C57.315 36.0739 57.4428 36.4683 57.4428 37.0161C57.4428 37.9337 57.1027 39.2721 56.8649 39.9431ZM63.7818 46.6389C62.8894 46.6389 62.5396 45.6436 62.5396 44.4796C62.5396 42.3147 64.1317 38.4891 65.826 38.4891C66.5612 38.4891 66.8226 39.3176 66.8226 40.345C66.8226 42.6237 65.3366 46.6389 63.7799 46.6389H63.7818Z" fill="white"/>
</g>
<defs>
<radialGradient id="paint0_radial_1_49" cx="0" cy="0" r="1" gradientTransform="matrix(62.0054 -69.8208 -72.3941 -59.8014 -7.78168 100.058)" gradientUnits="userSpaceOnUse">
<stop stop-color="#6420FF"/>
<stop offset="1" stop-color="#6420FF" stop-opacity="0"/>
</radialGradient>
<radialGradient id="paint1_radial_1_49" cx="0" cy="0" r="1" gradientTransform="matrix(62.1133 84.6075 87.7257 -59.9054 4.0189 -17.2951)" gradientUnits="userSpaceOnUse">
<stop stop-color="#00C4CC"/>
<stop offset="1" stop-color="#00C4CC" stop-opacity="0"/>
</radialGradient>
<radialGradient id="paint2_radial_1_49" cx="0" cy="0" r="1" gradientTransform="matrix(66.3514 -64.4413 -30.7299 -29.4314 -3.30693 93.693)" gradientUnits="userSpaceOnUse">
<stop stop-color="#6420FF"/>
<stop offset="1" stop-color="#6420FF" stop-opacity="0"/>
</radialGradient>
<radialGradient id="paint3_radial_1_49" cx="0" cy="0" r="1" gradientTransform="matrix(38.6591 85.8314 149.086 -62.4606 23.3523 0.53444)" gradientUnits="userSpaceOnUse">
<stop stop-color="#00C4CC"/>
<stop offset="1" stop-color="#00C4CC" stop-opacity="0"/>
</radialGradient>
<radialGradient id="paint4_radial_1_49" cx="0" cy="0" r="1" gradientTransform="matrix(62.0054 -69.8209 72.3941 59.8015 -7.78169 100.058)" gradientUnits="userSpaceOnUse">
<stop stop-color="#6420FF"/>
<stop offset="1" stop-color="#6420FF" stop-opacity="0"/>
</radialGradient>
<radialGradient id="paint5_radial_1_49" cx="0" cy="0" r="1" gradientTransform="matrix(62.1133 84.6076 -87.7258 59.9055 4.01888 -17.2951)" gradientUnits="userSpaceOnUse">
<stop stop-color="#00C4CC"/>
<stop offset="1" stop-color="#00C4CC" stop-opacity="0"/>
</radialGradient>
<radialGradient id="paint6_radial_1_49" cx="0" cy="0" r="1" gradientTransform="matrix(66.3514 -64.4413 30.7299 29.4314 -3.30693 93.6931)" gradientUnits="userSpaceOnUse">
<stop stop-color="#6420FF"/>
<stop offset="1" stop-color="#6420FF" stop-opacity="0"/>
</radialGradient>
<radialGradient id="paint7_radial_1_49" cx="0" cy="0" r="1" gradientTransform="matrix(38.6591 85.8314 -149.086 62.4606 23.3522 0.534445)" gradientUnits="userSpaceOnUse">
<stop stop-color="#00C4CC"/>
<stop offset="1" stop-color="#00C4CC" stop-opacity="0"/>
</radialGradient>
<clipPath id="clip0_1_49">
<rect width="80" height="80" fill="white"/>
</clipPath>
</defs>
</svg>