<svg xmlns="http://www.w3.org/2000/svg" width="24" height="24" viewBox="0 0 16 16" fill="none">
<path d="M9.33343 1.33334C9.33343 1.33334 10.8001 1.46668 12.6668 3.33334C14.5334 5.20001 14.6668 6.66668 14.6668 6.66668M9.47143 3.69068C9.47143 3.69068 10.1314 3.87868 11.1214 4.86868C12.1114 5.85868 12.3001 6.51868 12.3001 6.51868M6.6921 3.54401L7.12477 4.31934C7.51477 5.01934 7.3581 5.93668 6.74343 6.55201C6.74343 6.55201 5.99677 7.29801 7.3501 8.65068C8.7021 10.0027 9.4481 9.25734 9.4481 9.25734C10.0634 8.64201 10.9814 8.48534 11.6808 8.87534L12.4561 9.30868C13.5128 9.89801 13.6374 11.3793 12.7088 12.3087C12.1508 12.866 11.4668 13.3007 10.7114 13.3287C9.43943 13.3773 7.27877 13.0553 5.11143 10.8887C2.94477 8.72134 2.62277 6.56068 2.67143 5.28868C2.7001 4.53334 3.1341 3.84934 3.69143 3.29134C4.62077 2.36268 6.1021 2.48734 6.69143 3.54468L6.6921 3.54401Z" stroke="black" stroke-linecap="round"/>
</svg>